<!DOCTYPE svg PUBLIC "-//W3C//DTD SVG 1.1//EN" "http://www.w3.org/Graphics/SVG/1.1/DTD/svg11.dtd">
<!-- Uploaded to: SVG Repo, www.svgrepo.com, Transformed by: SVG Repo Mixer Tools -->
<svg height="800px" width="800px" version="1.1" id="Layer_1" xmlns="http://www.w3.org/2000/svg" xmlns:xlink="http://www.w3.org/1999/xlink" viewBox="0 0 512.00 512.00" xml:space="preserve" fill="#000000" stroke="#000000" stroke-width="4.096016">
<g id="SVGRepo_bgCarrier" stroke-width="0"/>
<g id="SVGRepo_tracerCarrier" stroke-linecap="round" stroke-linejoin="round"/>
<g id="SVGRepo_iconCarrier"> <path style="fill:#FFDC64;" d="M396.725,185.93l-111.883,6.581c-6.068,0.358-10.903-5.452-9.054-11.243 c0.985-3.083,2.386-6.039,4.173-8.785c16.728-25.692,46.661-75.362,46.661-101.863C326.623,31.681,294.942,0,256.002,0 s-70.621,31.681-70.621,70.621c0,26.502,29.933,76.172,46.662,101.863c1.788,2.745,3.188,5.7,4.173,8.785 c1.849,5.791-2.986,11.599-9.054,11.243l-111.884-6.581c-5.07-0.298-9.346,3.733-9.346,8.812v34.241c0,5.079,4.276,9.11,9.346,8.812 l112.051-6.591c5.162-0.303,9.479,3.875,9.343,9.045l-6.913,262.691c-0.13,4.964,3.859,9.059,8.824,9.059h34.839 c4.967,0,8.956-4.095,8.824-9.059l-6.913-262.691c-0.136-5.17,4.181-9.348,9.343-9.045l112.049,6.591 c5.07,0.298,9.346-3.733,9.346-8.812v-34.241C406.071,189.663,401.795,185.632,396.725,185.93z M220.692,70.622 c0-19.474,15.84-35.31,35.31-35.31c19.47,0,35.31,15.837,35.31,35.31c0,10.919-14.332,39.484-31.547,67.683 c-1.713,2.804-5.823,2.804-7.534-0.001C235.022,110.105,220.692,81.54,220.692,70.622z"/> <g> <path style="fill:#FFC850;" d="M229.519,211.863H105.931v17.121c0,5.079,4.276,9.11,9.345,8.812l112.051-6.591 c5.163-0.303,9.48,3.875,9.343,9.045l-6.913,262.691c-0.13,4.964,3.859,9.06,8.825,9.06h17.42V238.346 C256.002,223.72,244.146,211.863,229.519,211.863z"/> <path style="fill:#FFC850;" d="M256.002,182.558c0-1.966-0.516-3.87-1.519-5.561c-24.311-40.984-51.866-87.852-51.866-109.133 c0-22.082,13.471-37.891,32.626-46.006c9.697-4.108,24.071-14.132,19.625-21.799c-38.412,0.615-69.485,32.007-69.485,70.563 c0,26.502,29.933,76.172,46.662,101.863c1.788,2.745,3.188,5.7,4.173,8.783c1.849,5.791-2.986,11.599-9.054,11.242l17.21,1.012 C250.681,193.895,256.002,188.878,256.002,182.558z"/> </g> </g>
</svg>